<?xml version="1.0" encoding="utf-8"?>
<!-- Generator: Adobe Illustrator 26.2.1, SVG Export Plug-In . SVG Version: 6.00 Build 0)  -->
<svg version="1.1" id="Camada_1" xmlns="http://www.w3.org/2000/svg" xmlns:xlink="http://www.w3.org/1999/xlink" x="0px" y="0px"
	 viewBox="0 0 1080 1080" style="enable-background:new 0 0 1080 1080;" xml:space="preserve">
<style type="text/css">
	.st0{fill:#FFFFFF;}
	.st1{fill:#E9501A;}
</style>
<g>
	<path class="st0" d="M892,332.8l19.9,34.4c8,13.9,28.1,13.9,36.1,0l19.9-34.4c8-13.9-2-31.3-18.1-31.3h-39.8
		C894,301.6,884,318.9,892,332.8z"/>
	<path class="st1" d="M815.6,738.9H569.8c-10.6,0-14.2-8.6-8.1-19.2L785,333c6.1-10.6,19.7-19.2,30.3-19.2H1061
		c10.6,0,14.2,8.6,8.1,19.2L845.8,719.7C839.7,730.3,826.2,738.9,815.6,738.9z"/>
	<path class="st0" d="M735.9,333L512.6,719.7c-6.1,10.6-19.7,19.6-30.3,19.6H22.4c-12.2,0-17.8-7.4-12.6-16.6l122.7-212.9
		c5.3-9.2,19.5-16.6,31.7-16.6l192-0.1c1.9,0,3.6-1,4.5-2.6l91-157.5c6.1-10.6,19.7-19.2,30.3-19.2h245.7
		C738.4,313.8,742.1,322.4,735.9,333z"/>
</g>
</svg>
